<?xml version="1.0" standalone="no"?>
<!DOCTYPE svg PUBLIC "-//W3C//DTD SVG 20010904//EN"
 "http://www.w3.org/TR/2001/REC-SVG-20010904/DTD/svg10.dtd">
<svg version="1.0" xmlns="http://www.w3.org/2000/svg"
 width="428.000000pt" height="428.000000pt" viewBox="0 0 428.000000 428.000000"
 preserveAspectRatio="xMidYMid meet">
<metadata>
Created by potrace 1.11, written by Peter Selinger 2001-2013
</metadata>
<g transform="translate(0.000000,428.000000) scale(0.100000,-0.100000)"
fill="#000000" stroke="none">
<path d="M773 3682 c-33 -31 -100 -93 -148 -137 -48 -44 -107 -99 -131 -122
-24 -23 -44 -40 -44 -38 0 3 -15 -12 -34 -32 l-33 -37 23 -21 c13 -12 24 -28
24 -34 0 -7 5 -9 10 -6 6 3 10 2 10 -3 0 -9 38 -53 122 -142 26 -28 45 -50 43
-50 -2 0 19 -23 46 -51 27 -28 49 -53 49 -56 0 -3 15 -20 33 -38 17 -17 51
-54 75 -82 24 -28 58 -68 77 -88 19 -20 35 -41 35 -46 0 -6 5 -7 10 -4 5 3 10
2 10 -3 0 -8 73 -94 127 -149 12 -13 20 -23 17 -23 -3 0 8 -11 24 -25 28 -24
53 -72 63 -123 1 -4 6 -18 11 -32 5 -14 11 -32 14 -40 18 -73 29 -109 37 -130
5 -12 21 -68 33 -112 1 -5 3 -10 4 -13 9 -19 -5 -38 -80 -112 -276 -270 -353
-343 -362 -343 -5 0 -7 -4 -3 -9 3 -5 -4 -12 -15 -16 -11 -3 -19 -9 -17 -13 1
-4 -1 -9 -4 -11 -4 -2 -68 -64 -143 -137 -123 -119 -136 -135 -126 -154 6 -11
8 -20 4 -20 -3 0 -2 -6 4 -12 6 -7 11 -17 12 -23 1 -5 7 -21 12 -35 6 -14 11
-29 12 -35 2 -5 11 -30 22 -55 10 -25 18 -48 16 -52 -1 -5 2 -8 8 -8 6 0 9 -3
8 -7 -3 -9 27 -92 52 -148 10 -22 22 -52 25 -68 4 -15 11 -30 16 -33 5 -3 7
-10 4 -15 -4 -5 -1 -9 5 -9 6 0 10 -6 9 -12 -1 -15 11 -58 17 -58 8 0 74 72
74 80 0 5 12 18 26 29 15 12 23 21 18 21 -4 0 -1 6 8 13 9 6 35 35 59 63 24
28 67 77 94 109 28 32 62 71 78 87 15 16 27 31 27 33 0 3 8 13 18 23 9 10 42
47 72 82 30 35 70 79 88 97 17 19 32 36 32 40 0 3 17 23 39 44 21 21 37 40 35
41 -2 2 6 9 16 16 11 7 20 9 21 5 2 -21 8 -45 12 -50 6 -5 83 42 115 70 12 11
22 16 22 11 0 -5 6 -2 13 7 7 9 27 23 45 33 17 9 32 21 32 27 0 6 5 7 10 4 6
-3 10 -1 10 4 0 6 6 11 14 11 8 0 16 4 18 8 2 4 37 30 78 57 41 27 77 52 80
55 3 4 33 23 66 44 34 21 70 45 81 54 22 19 51 39 73 49 8 4 24 15 34 25 11
10 25 18 32 18 7 0 14 4 16 8 2 5 21 21 43 35 32 22 42 25 50 14 6 -7 22 -21
37 -31 18 -12 30 -32 38 -64 6 -26 9 -50 8 -53 -2 -3 2 -12 8 -20 6 -8 14 -26
18 -42 l6 -27 37 39 36 40 26 -19 c14 -10 38 -29 52 -42 15 -13 44 -36 65 -53
21 -16 48 -39 60 -50 13 -11 61 -51 108 -90 47 -38 86 -73 86 -77 0 -4 7 -8
15 -8 25 0 17 -16 -22 -46 -21 -16 -45 -36 -55 -46 -10 -10 -23 -18 -29 -18
-5 0 -7 -4 -4 -10 3 -5 1 -10 -5 -10 -10 0 -37 -22 -101 -83 -11 -9 -21 -17
-24 -17 -11 0 -55 -49 -55 -61 0 -7 3 -10 6 -7 3 4 20 2 37 -4 18 -5 39 -11
47 -12 8 -2 35 -9 60 -15 25 -7 53 -15 62 -16 26 -5 141 -36 158 -43 8 -3 22
-7 30 -8 8 -1 42 -9 75 -19 83 -23 98 -26 115 -30 8 -1 22 -5 30 -8 51 -18 83
-26 91 -21 5 3 9 0 9 -6 0 -6 4 -9 8 -6 5 3 31 -2 58 -10 27 -9 59 -17 70 -20
12 -2 60 -15 108 -29 47 -14 89 -24 94 -23 4 0 14 -2 22 -5 8 -3 32 -10 53
-16 29 -7 37 -6 37 4 0 11 -21 77 -37 115 -3 8 -7 22 -8 30 -2 8 -26 85 -54
170 -28 85 -51 161 -51 168 0 6 -4 12 -8 12 -4 0 -9 12 -10 26 -1 15 -7 33
-13 40 -6 8 -9 14 -6 14 4 0 -1 19 -9 43 -9 23 -17 47 -18 52 -2 6 -6 18 -10
27 -4 9 -9 22 -10 30 -15 64 -20 78 -28 78 -5 0 -6 5 -3 10 10 16 -19 22 -51
9 -16 -6 -38 -13 -49 -14 -11 -2 -49 -13 -84 -24 -66 -22 -101 -26 -101 -13 0
4 -14 21 -30 39 -17 18 -30 37 -30 43 0 6 -4 8 -10 5 -5 -3 -10 -1 -10 5 0 6
-6 17 -12 24 -7 7 -26 30 -43 51 -36 45 -72 88 -103 123 -12 14 -33 39 -45 55
-12 16 -27 34 -32 40 -6 7 -28 33 -49 60 -45 55 -50 42 60 151 34 34 79 82
101 108 23 26 44 44 47 41 3 -4 6 1 6 11 0 9 5 14 10 11 6 -3 10 -2 10 4 0 5
43 53 95 105 52 53 94 96 91 96 -2 0 33 36 76 80 44 44 83 80 87 80 6 0 78
-55 124 -96 15 -13 27 -21 27 -17 0 5 5 0 11 -9 5 -10 16 -18 23 -18 7 0 42
56 77 125 35 69 78 153 96 187 18 35 32 69 32 76 1 6 5 12 10 12 5 0 13 10 17
23 3 12 13 30 22 40 8 9 12 17 9 17 -7 0 59 129 74 145 5 5 9 17 9 27 0 10 5
18 12 18 6 0 8 3 5 7 -4 3 0 15 10 25 9 10 13 18 9 18 -4 0 1 12 11 28 11 15
34 59 53 97 19 39 39 73 45 77 5 4 6 8 1 8 -5 0 -3 7 4 15 12 14 5 39 -8 31
-7 -4 -113 -18 -142 -18 -8 -1 -20 -5 -27 -10 -7 -5 -14 -5 -18 2 -3 6 -12 7
-18 3 -6 -4 -27 -8 -47 -9 -19 -1 -35 -3 -35 -4 0 -1 -20 -3 -45 -5 -25 -3
-61 -6 -80 -9 -19 -2 -64 -7 -100 -11 -109 -12 -113 -13 -170 -20 -30 -4 -71
-9 -90 -11 -44 -4 -99 -10 -175 -20 -33 -4 -68 -8 -77 -9 -25 -2 -32 -11 -24
-32 4 -10 8 -20 8 -23 1 -3 14 -30 30 -60 15 -30 28 -58 28 -62 0 -3 13 -35
29 -70 16 -35 38 -84 50 -111 l22 -47 -25 -25 c-13 -13 -27 -21 -30 -18 -3 4
-6 1 -6 -5 0 -7 -7 -12 -15 -12 -8 0 -15 -4 -15 -9 0 -5 -22 -23 -49 -40 -26
-17 -61 -43 -77 -56 -16 -14 -32 -25 -35 -25 -5 0 -23 -14 -66 -50 -7 -6 -13
-8 -13 -5 0 3 -9 -3 -19 -12 -26 -24 -35 -31 -116 -87 -38 -27 -102 -73 -142
-103 -39 -29 -78 -51 -85 -48 -8 3 -24 25 -36 48 -28 56 -77 141 -112 197 -15
25 -42 71 -59 102 -45 84 -55 102 -62 108 -10 8 -43 75 -41 83 1 4 -2 7 -6 7
-4 0 -19 22 -33 50 -13 27 -28 50 -32 50 -5 0 -6 4 -3 8 3 5 -4 18 -14 30 -11
12 -20 28 -20 36 0 8 -4 16 -8 18 -4 2 -22 27 -39 56 l-30 54 -38 -79 c-22
-43 -38 -81 -37 -85 1 -5 -2 -8 -7 -8 -9 0 -26 -48 -23 -62 1 -5 -2 -8 -7 -8
-5 0 -17 -20 -28 -45 -10 -25 -21 -45 -25 -45 -5 0 -8 -8 -8 -19 0 -10 -7 -24
-15 -31 -9 -7 -14 -15 -11 -17 2 -2 -34 -82 -81 -176 -46 -95 -92 -188 -101
-207 -9 -19 -21 -38 -25 -41 -5 -3 -9 -10 -9 -15 0 -5 -3 -15 -8 -23 -6 -12
-10 -11 -18 5 -5 10 -10 21 -11 24 0 3 -6 21 -13 40 -7 19 -11 38 -10 43 1 4
-3 7 -10 7 -6 0 -8 3 -5 7 4 3 3 11 -2 17 -5 6 -14 29 -21 51 -7 22 -26 59
-41 83 -16 24 -29 47 -29 52 0 4 -4 10 -8 12 -8 3 -51 59 -120 156 -51 72
-117 158 -125 163 -5 3 -8 10 -7 14 1 4 -7 18 -19 31 -12 13 -21 28 -21 33 0
5 -4 11 -8 13 -4 2 -37 44 -72 93 -36 50 -68 92 -72 93 -5 2 -8 8 -8 14 0 5
-6 15 -12 23 -27 27 -48 55 -42 55 3 0 -2 7 -10 16 -9 8 -30 37 -48 62 -62 90
-56 89 -125 24z m1417 -1157 c12 -44 24 -87 27 -97 3 -9 -5 -26 -16 -37 -12
-12 -20 -22 -19 -23 2 -3 -59 -72 -109 -125 -12 -13 -20 -23 -17 -23 3 0 -5
-11 -18 -23 -13 -13 -42 -46 -65 -73 -23 -27 -58 -67 -77 -89 -20 -22 -36 -43
-36 -47 0 -5 -6 -8 -14 -8 -25 0 -23 34 6 81 15 25 28 51 28 58 0 6 4 11 8 11
10 0 37 50 34 63 -1 4 2 7 7 7 5 0 11 8 14 18 3 9 23 47 44 83 90 158 113 200
113 209 0 6 5 10 10 10 6 0 9 3 8 8 -2 8 43 84 48 80 1 -2 12 -39 24 -83z"/>
</g>
</svg>
